<?xml version="1.0" standalone="no"?>
<!DOCTYPE svg PUBLIC "-//W3C//DTD SVG 20010904//EN"
 "http://www.w3.org/TR/2001/REC-SVG-20010904/DTD/svg10.dtd">
<svg version="1.0" xmlns="http://www.w3.org/2000/svg"
 width="563.000000pt" height="467.000000pt" viewBox="0 0 563.000000 467.000000"
 preserveAspectRatio="xMidYMid meet">

<g transform="translate(0.000000,467.000000) scale(0.100000,-0.100000)"
fill="#000000" stroke="none">
<path d="M4780 3436 c-45 -118 -74 -464 -66 -791 l5 -260 -45 95 c-25 52 -65
143 -89 202 -51 123 -118 259 -148 300 -20 27 -50 35 -73 20 -7 -4 -19 -68
-28 -142 -51 -430 -43 -714 24 -857 28 -61 30 -63 66 -63 23 0 42 6 50 18 18
23 18 52 0 52 -24 0 -27 64 -20 412 l7 341 29 -79 c16 -44 82 -191 146 -329
117 -248 119 -250 148 -247 16 2 35 9 41 15 32 31 76 568 89 1080 l7 257 -67
0 c-61 0 -67 -2 -76 -24z"/>
<path d="M4980 3270 c-34 -63 -38 -658 -6 -893 20 -140 58 -266 91 -297 l25
-23 27 24 c15 13 31 29 35 34 4 6 8 77 8 160 0 87 4 145 9 140 5 -6 52 -91
106 -190 121 -225 192 -326 246 -351 37 -16 42 -16 75 -1 29 14 35 22 32 45
-2 21 -8 26 -24 24 -16 -2 -25 6 -37 30 -8 18 -34 73 -56 121 -54 117 -121
235 -253 444 l-109 172 115 224 c64 123 116 229 116 235 0 15 -35 33 -52 27
-16 -7 -67 -85 -149 -234 -60 -106 -64 -111 -66 -80 -12 165 -27 294 -40 347
-15 61 -16 62 -49 62 -23 0 -37 -6 -44 -20z"/>
<path d="M4094 3145 c-138 -35 -151 -46 -118 -94 15 -20 22 -22 61 -16 40 6
44 5 39 -12 -18 -60 -27 -184 -27 -373 0 -222 12 -384 37 -503 19 -91 18 -96
-13 -103 -42 -10 -53 -23 -53 -60 0 -40 10 -42 120 -19 98 21 110 28 110 70 0
30 -3 35 -24 35 -13 0 -27 8 -31 18 -4 9 -9 170 -11 357 -2 187 -6 403 -8 480
l-3 141 39 16 c34 15 38 20 38 52 0 34 -2 36 -32 35 -18 0 -74 -11 -124 -24z"/>
<path d="M3473 3097 c-23 -25 -32 -87 -13 -87 6 0 10 -68 10 -184 0 -335 58
-754 121 -879 20 -37 22 -39 57 -32 20 4 41 10 46 15 16 16 8 257 -20 556 l-7
71 72 18 c81 20 138 56 172 112 20 32 24 51 24 118 -1 97 -15 148 -59 211 -53
78 -102 98 -255 102 -123 3 -127 3 -148 -21z m286 -93 c43 -25 66 -72 81 -166
15 -91 6 -124 -41 -152 -33 -20 -130 -48 -138 -41 -2 3 -12 57 -22 120 -18
117 -36 215 -46 249 -5 18 0 18 64 14 43 -3 83 -13 102 -24z"/>
<path d="M2999 3043 c-7 -24 -13 -148 -16 -337 -5 -317 4 -489 37 -653 19 -96
64 -196 90 -200 8 -2 29 9 45 24 l30 26 0 158 c0 87 3 155 7 151 4 -4 45 -80
92 -169 78 -150 164 -290 200 -326 8 -8 13 -17 11 -19 -3 -3 18 -15 45 -28 49
-23 51 -23 86 -7 29 14 35 22 32 45 -2 21 -8 27 -25 25 -17 -2 -27 9 -49 60
-83 184 -213 412 -345 608 -33 47 -59 91 -59 97 0 6 52 113 117 238 109 214
115 228 98 240 -10 8 -24 14 -31 14 -18 0 -56 -55 -141 -206 l-78 -139 -7 55
c-4 30 -11 107 -17 170 -6 63 -17 135 -24 160 -12 42 -15 45 -49 48 -35 3 -37
1 -49 -35z"/>
<path d="M2824 3026 c-136 -63 -240 -226 -300 -471 -34 -137 -42 -304 -20
-410 31 -154 112 -281 200 -315 117 -44 256 47 287 187 23 101 -26 177 -82
127 -23 -21 -25 -42 -4 -50 18 -7 12 -40 -18 -99 -30 -60 -59 -95 -78 -95 -29
0 -78 70 -99 140 -87 297 -7 764 159 930 44 44 48 51 35 65 -20 19 -20 19 -80
-9z"/>
<path d="M999 3020 c-71 -38 -123 -100 -157 -188 -44 -116 -56 -196 -48 -327
3 -60 8 -128 11 -150 3 -22 -4 -5 -15 37 -32 125 -79 235 -122 281 -36 41 -38
41 -53 23 -21 -28 -19 -102 9 -285 13 -86 31 -212 40 -281 36 -280 67 -542 64
-544 -26 -16 -283 -110 -341 -125 -43 -10 -80 -21 -82 -23 -5 -4 14 -171 20
-177 18 -17 378 88 410 120 18 18 32 9 48 -32 15 -38 19 -41 44 -34 39 9 42
14 44 73 2 58 10 66 129 145 76 50 209 175 265 250 58 76 81 122 99 189 15 58
15 58 41 -57 26 -113 35 -178 26 -189 -4 -6 -11 -23 -15 -38 l-6 -28 102 0
c57 1 151 7 210 14 102 11 108 11 114 -6 10 -31 47 -50 77 -39 45 17 85 121
156 401 23 91 53 202 67 247 l26 82 69 12 c37 7 72 12 76 11 4 -1 15 -32 24
-69 61 -246 102 -390 113 -401 9 -9 19 -10 39 -3 15 6 27 13 27 16 0 3 -18 96
-41 207 -78 389 -169 726 -215 795 -12 20 -22 24 -52 21 -35 -3 -39 -7 -69
-68 -42 -83 -129 -346 -188 -566 -47 -177 -105 -447 -105 -489 0 -31 -5 -34
-87 -45 -37 -5 -97 -14 -132 -20 -35 -6 -67 -7 -71 -3 -4 4 -10 109 -13 233
-4 156 -13 265 -27 355 -48 295 -96 501 -123 523 -8 7 -24 8 -43 3 l-29 -8 3
-159 c1 -87 11 -242 22 -343 11 -101 20 -195 20 -209 l0 -26 -27 26 c-16 15
-41 32 -58 38 -38 15 -192 15 -229 0 l-29 -11 35 39 c148 164 220 378 197 590
-12 110 -25 147 -68 192 -35 37 -42 40 -92 40 -33 -1 -68 -8 -90 -20z m130
-91 c6 -18 11 -72 11 -121 0 -105 -23 -206 -76 -332 -32 -75 -48 -99 -129
-184 -61 -63 -97 -94 -103 -87 -5 6 -12 31 -16 58 -5 44 -4 47 17 47 12 0 27
4 34 8 11 7 56 209 68 312 18 143 49 229 106 295 40 45 73 47 88 4z m1135
-366 c32 -114 32 -123 2 -123 -14 0 -37 -5 -52 -10 -15 -6 -29 -9 -31 -6 -3 2
6 64 18 136 14 82 26 126 30 114 4 -11 18 -60 33 -111z m-984 -485 c0 -12 -18
-51 -39 -87 -41 -69 -167 -185 -296 -272 l-60 -41 -12 134 c-6 73 -13 158 -15
188 l-3 54 195 22 c107 12 203 22 213 23 11 1 17 -6 17 -21z"/>
</g>
</svg>
