<?xml version="1.0" standalone="no"?>
<!DOCTYPE svg PUBLIC "-//W3C//DTD SVG 20010904//EN"
 "http://www.w3.org/TR/2001/REC-SVG-20010904/DTD/svg10.dtd">
<svg version="1.0" xmlns="http://www.w3.org/2000/svg"
 width="800.000000pt" height="310.000000pt" viewBox="0 0 800.000000 310.000000"
 preserveAspectRatio="xMidYMid meet">

<g transform="translate(0.000000,310.000000) scale(0.100000,-0.100000)"
fill="#000000" stroke="none">
<path d="M110 1555 l0 -895 3890 0 3890 0 0 895 0 895 -3890 0 -3890 0 0 -895z
m7610 -5 l0 -730 -3720 0 -3720 0 0 730 0 730 3720 0 3720 0 0 -730z"/>
<path d="M3200 1935 c-51 -16 -152 -75 -156 -90 -1 -5 31 -38 71 -73 l74 -63
33 17 c18 10 56 18 83 18 106 2 186 -79 186 -187 0 -177 -184 -260 -312 -140
l-26 24 -76 -62 c-43 -35 -77 -66 -77 -69 0 -17 97 -94 148 -118 50 -24 69
-27 162 -27 94 0 111 3 161 28 88 43 143 98 186 185 36 73 38 81 38 177 0 91
-3 106 -31 165 -39 84 -111 155 -194 194 -77 36 -195 45 -270 21z"/>
<path d="M3825 1932 c-3 -3 -5 -169 -5 -369 l0 -364 103 3 102 3 5 116 5 117
98 -119 98 -119 120 0 c93 0 119 3 113 13 -4 6 -58 77 -119 157 -61 80 -124
162 -139 182 l-28 37 146 166 c80 91 146 169 146 173 0 5 -168 7 -240 2 -3 0
-48 -52 -100 -115 l-95 -114 -3 114 c-1 63 -6 115 -10 115 -4 0 -49 2 -99 4
-51 1 -95 1 -98 -2z"/>
<path d="M680 1555 l0 -375 224 0 c140 0 236 4 257 11 144 49 190 227 88 338
-25 28 -29 38 -20 50 35 50 45 80 45 136 1 101 -57 178 -153 205 -20 5 -127
10 -238 10 l-203 0 0 -375z m375 200 c31 -30 32 -73 5 -103 -18 -19 -31 -22
-105 -22 l-85 0 0 68 c0 38 3 72 7 75 3 4 40 7 80 7 65 0 77 -3 98 -25z m10
-290 c14 -13 25 -36 25 -50 0 -14 -11 -37 -25 -50 -22 -23 -32 -25 -110 -25
l-85 0 0 75 0 75 85 0 c78 0 88 -2 110 -25z"/>
<path d="M1475 1917 c-3 -6 -4 -174 -3 -372 l3 -360 298 -3 297 -2 0 90 0 90
-82 1 c-46 1 -132 3 -193 5 l-110 4 -3 280 -2 280 -100 0 c-72 0 -102 -4 -105
-13z"/>
<path d="M2390 1733 c-40 -109 -101 -276 -136 -372 -35 -96 -64 -176 -64 -178
0 -1 47 -3 104 -3 l104 0 32 88 c17 48 50 151 73 229 23 79 45 143 48 143 4 0
14 -28 24 -62 18 -68 83 -273 110 -350 l17 -48 104 0 c57 0 104 3 104 7 0 7
-100 280 -212 581 l-61 162 -87 0 -87 0 -73 -197z"/>
<path d="M4667 1924 c-4 -4 -7 -169 -7 -366 l0 -358 100 0 99 0 3 113 3 112
110 5 c128 6 170 23 232 94 109 124 76 297 -71 374 -50 26 -56 27 -256 30
-113 2 -209 0 -213 -4z m374 -183 c43 -43 36 -91 -18 -119 -12 -7 -51 -12 -87
-12 l-66 0 0 80 0 80 71 0 c65 0 73 -2 100 -29z"/>
<path d="M5420 1565 l0 -365 100 0 100 0 0 365 0 365 -100 0 -100 0 0 -365z"/>
<path d="M5800 1565 l0 -365 103 0 102 0 125 190 125 190 3 -190 2 -190 100 0
100 0 0 365 0 365 -99 0 -98 0 -124 -189 c-68 -104 -127 -190 -131 -190 -5 -1
-8 85 -8 189 l0 190 -100 0 -100 0 0 -365z"/>
<path d="M6660 1565 l0 -365 105 0 104 0 3 117 3 117 95 -116 95 -117 123 -1
123 0 -78 103 c-42 56 -108 142 -145 190 -68 87 -69 88 -51 110 10 13 74 87
143 166 69 78 127 147 128 152 3 6 -44 9 -119 7 l-124 -3 -95 -114 -95 -114
-3 116 -3 117 -104 0 -105 0 0 -365z"/>
</g>
</svg>
