<svg version="1.1" id="Layer_1" xmlns="http://www.w3.org/2000/svg" xmlns:xlink="http://www.w3.org/1999/xlink" x="0px" y="0px"
	 width="100%" viewBox="0 0 415 62" enable-background="new 0 0 415 62" xml:space="preserve">
<path fill="#FFFEFE" opacity="1.000000" stroke="none" 
	d="
M164.000000,1.000000 
	C172.687561,1.000000 181.375137,1.000000 190.521561,1.323478 
	C190.972839,2.078334 190.965256,2.509711 190.930634,3.415115 
	C190.956055,17.946375 191.008514,32.003609 191.339722,46.358994 
	C195.233841,46.657143 198.849228,46.657143 203.006577,46.657143 
	C203.006577,41.904003 203.006577,37.451466 203.337677,33.077316 
	C207.453003,37.423264 211.237213,41.690819 215.274597,46.294441 
	C219.255020,46.724190 222.983917,46.896927 226.707672,46.820179 
	C227.223343,46.809547 227.713593,45.565937 228.125214,44.558304 
	C222.791107,37.418285 217.547424,30.613081 212.435516,23.472412 
	C213.682465,21.717028 214.782272,20.284733 215.915543,18.879431 
	C219.917542,13.916812 223.931015,8.963441 228.245392,3.977138 
	C229.034775,3.627582 229.518906,3.307456 230.002838,2.656107 
	C230.001770,1.883257 230.000885,1.441629 230.000000,1.000000 
	C291.959564,1.000000 353.919128,1.000000 415.939331,1.000000 
	C415.939331,21.612610 415.939331,42.225430 415.939331,62.919128 
	C277.666687,62.919128 139.333359,62.919128 1.000008,62.925930 
	C1.000000,57.935955 1.000000,52.939175 1.468733,47.465664 
	C10.260187,46.998455 18.585382,47.133759 26.904703,46.970257 
	C31.883137,46.872414 36.045460,43.371071 37.616837,38.614891 
	C38.784264,35.081367 38.092056,32.178009 35.024567,29.761303 
	C34.399380,27.953379 33.627033,26.449686 32.931343,24.593393 
	C35.756973,20.239563 37.829109,16.094849 35.781857,10.732309 
	C34.102264,6.446646 31.544863,3.585088 26.733032,2.788184 
	C17.973036,2.312071 9.486518,2.156036 1.000000,2.000000 
	C2.328522,1.666667 3.656748,1.043264 4.985610,1.041904 
	C53.677933,0.992084 102.370308,1.000000 151.324036,1.277972 
	C149.139572,2.799803 146.547943,3.834826 144.319946,5.390595 
	C143.432129,6.010536 143.348190,7.781708 143.166443,9.232592 
	C145.926254,11.363921 148.417923,13.291461 151.298523,15.201118 
	C155.339905,14.857451 158.992355,14.531667 162.823364,14.451583 
	C163.662613,15.137939 164.323273,15.578596 165.166321,16.287384 
	C166.541061,18.085417 167.733444,19.615318 168.919586,21.494759 
	C168.981155,22.541739 169.048981,23.239178 169.079239,24.316559 
	C169.053009,26.803358 169.064362,28.910217 168.732178,31.068405 
	C164.573273,33.114143 160.757889,35.108551 156.599991,37.067711 
	C155.164062,36.705883 154.070648,36.379299 152.706238,35.872166 
	C150.901184,35.098831 149.367111,34.506050 147.499603,33.970493 
	C145.075043,35.920517 142.983932,37.813316 140.601624,39.800243 
	C141.168427,40.598114 142.026428,41.301853 142.921432,42.377621 
	C144.642181,44.157650 146.325928,45.565655 148.274323,47.230713 
	C157.067337,51.008553 165.217499,50.189354 172.399155,44.464035 
	C179.473648,38.824169 182.804901,31.332275 181.415588,21.764385 
	C180.427002,19.573334 179.339233,17.717258 178.342239,15.561699 
	C177.657471,13.488738 176.881927,11.715264 175.974243,9.649559 
	C174.580536,8.223782 173.318954,7.090236 171.880920,5.685220 
	C170.541595,4.865372 169.378738,4.316995 168.001831,3.505450 
	C166.545242,2.814200 165.302704,2.386117 164.035126,1.719155 
	C164.010071,1.480275 164.000000,1.000000 164.000000,1.000000 
M399.001312,45.364223 
	C398.719940,45.185707 398.438568,45.007191 398.141296,44.805004 
	C398.141296,44.805004 398.172913,44.783890 398.071472,44.100483 
	C396.949341,42.489384 395.834747,40.873005 394.703766,39.268139 
	C390.843262,33.789982 386.977020,28.315889 383.629791,22.317554 
	C388.204315,16.907433 392.778809,11.497312 398.031738,5.838909 
	C399.572357,3.670353 399.477234,2.127095 396.391449,2.048086 
	C393.273315,1.968247 390.150543,2.066907 386.336334,2.112059 
	C385.589996,2.696562 384.736694,3.185484 384.115021,3.881365 
	C380.543427,7.879536 377.026703,11.926745 373.364685,15.040363 
	C373.254333,10.986163 373.143982,6.931962 372.453400,2.297386 
	C368.677673,2.570981 364.901947,2.844576 361.047913,4.037489 
	C361.112274,18.078836 361.176605,32.120182 361.761505,46.765949 
	C365.463684,46.765949 369.165863,46.765949 373.197418,46.765949 
	C373.197418,42.370224 373.197418,38.316719 373.855499,34.021400 
	C375.147980,35.141460 376.554626,36.155720 377.710419,37.402489 
	C380.557068,40.473217 383.288422,43.650795 386.969666,46.953999 
	C390.965179,46.919941 394.960693,46.885883 399.453278,46.872017 
	C399.573486,46.758064 399.693726,46.644108 399.813934,46.530170 
	C399.595825,46.311695 399.377716,46.093224 399.007324,45.992554 
	C399.007324,45.992554 399.149445,45.862568 399.001312,45.364223 
M273.794373,7.304982 
	C270.863342,5.861357 267.932343,4.417733 264.409729,2.384617 
	C259.304626,2.255528 254.197433,1.982491 249.095245,2.056260 
	C246.424377,2.094876 243.762314,2.742374 241.028702,4.035532 
	C241.085007,18.078022 241.141312,32.120514 241.722275,46.764847 
	C245.153320,46.786804 248.584381,46.808762 252.521881,46.863811 
	C252.634750,46.580788 252.747604,46.297760 253.004990,45.220078 
	C252.959274,44.147633 252.913544,43.075188 253.023148,41.155022 
	C252.971848,39.435917 252.920547,37.716808 253.025848,35.164536 
	C253.885788,34.469742 254.682541,33.298615 255.618179,33.174503 
	C257.908295,32.870724 260.272034,33.181297 262.589325,33.012981 
	C272.464966,32.295666 279.307983,23.257046 277.138214,13.238171 
	C276.125244,11.468073 275.112244,9.697975 273.794373,7.304982 
M297.504547,2.354455 
	C295.400574,2.239438 293.257172,1.827111 291.204620,2.099468 
	C289.426117,2.335459 287.750641,3.347775 285.991516,4.951493 
	C286.067932,18.687279 286.144348,32.423065 286.743591,46.749729 
	C290.167877,46.775425 293.592194,46.801117 297.530762,46.857246 
	C297.652557,46.575325 297.774353,46.293400 298.054596,45.163425 
	C298.005005,43.442776 297.955414,41.722126 298.076721,39.077164 
	C298.048096,27.062895 298.019501,15.048627 297.504547,2.354455 
M320.455994,2.291913 
	C317.712341,2.202832 314.953674,1.916341 312.232605,2.123682 
	C311.172424,2.204467 310.196991,3.397590 309.110260,5.007583 
	C309.129272,17.984312 309.148315,30.961042 309.047028,44.665504 
	C309.071777,45.154697 309.096527,45.643890 309.605225,46.797806 
	C311.248077,46.857204 312.914978,46.759079 314.529327,47.005352 
	C319.498779,47.763451 322.610901,45.951271 325.163239,41.416759 
	C328.600464,35.310131 332.995209,29.742449 336.964325,24.889338 
	C337.037628,31.969688 337.110962,39.050037 337.700745,46.754993 
	C341.297638,46.754993 344.894501,46.754993 348.901215,46.754993 
	C348.901215,32.030357 348.901215,17.609640 348.633453,2.503354 
	C347.430420,2.363663 346.227417,2.223971 344.152649,2.020685 
	C338.902252,0.992369 335.396362,3.058454 333.037262,7.817123 
	C331.512512,10.892897 329.595856,13.806884 327.586609,16.600489 
	C325.729065,19.183264 323.514435,21.509241 321.334686,23.023605 
	C321.236206,16.307173 321.137695,9.590741 320.455994,2.291913 
M121.349335,46.746323 
	C124.887970,46.801575 128.426605,46.856823 132.663132,46.735657 
	C132.704330,46.259274 132.910736,45.722942 132.762787,45.315197 
	C127.921310,31.972622 123.068443,18.633986 118.125999,5.328674 
	C117.784584,4.409589 116.737701,3.752562 115.452286,2.407945 
	C107.128571,1.433778 107.058685,1.406094 104.118660,8.827520 
	C102.161095,13.768948 100.302711,18.758768 98.642616,23.806740 
	C96.321083,30.865971 94.225685,37.999573 91.691902,45.726574 
	C93.611336,46.174217 95.519203,46.681355 97.452591,47.057220 
	C101.591484,47.861851 103.740417,46.121075 104.819351,42.003006 
	C106.667419,34.949299 108.984253,28.018406 111.822548,21.131092 
	C112.255981,21.959549 112.801041,22.749119 113.105324,23.622568 
	C115.707138,31.091219 118.265305,38.575073 121.349335,46.746323 
M82.411102,36.250687 
	C75.068153,36.117695 67.725197,35.984699 60.279388,34.940582 
	C60.268459,25.901434 60.318344,16.861427 60.190868,7.823924 
	C60.167763,6.185693 59.417904,4.557714 58.415501,2.370651 
	C54.992134,2.636134 51.568771,2.901617 48.067703,4.080147 
	C48.051563,17.029236 48.005669,29.978458 48.063805,42.927216 
	C48.069836,44.270802 48.693943,45.611610 49.962803,47.026955 
	C61.018311,47.026955 72.073814,47.026955 83.041321,47.026955 
	C83.041321,43.074039 83.041321,39.931820 82.411102,36.250687 
z"/>
<path fill="#BA5168" opacity="1.000000" stroke="none" 
	d="
M34.877411,30.065538 
	C38.092056,32.178009 38.784264,35.081367 37.616837,38.614891 
	C36.045460,43.371071 31.883137,46.872414 26.904703,46.970257 
	C18.585382,47.133759 10.260187,46.998455 1.468733,46.994465 
	C1.000000,47.000000 1.000000,46.500000 1.337997,46.171692 
	C5.849365,43.012680 7.842258,39.334038 7.079333,34.079502 
	C6.657204,31.172148 7.160225,28.130468 7.570576,25.099224 
	C9.155504,24.790575 10.416075,24.532042 12.007967,24.282187 
	C12.558423,24.319185 12.777556,24.347506 13.336068,24.588022 
	C17.657532,24.979248 21.639618,25.158281 26.142395,25.360723 
	C25.090281,27.233616 24.459902,28.355772 23.396837,29.336773 
	C19.685862,29.195620 16.407572,29.195620 12.743884,29.195620 
	C12.743884,32.352673 12.743884,35.145851 12.535347,37.984367 
	C12.084353,38.202824 11.920878,38.432236 11.480213,38.784279 
	C10.490552,39.532486 9.857064,40.214348 9.223576,40.896214 
	C10.160059,41.243973 11.096541,41.591728 12.476895,42.008423 
	C15.614869,42.046875 18.308971,42.016396 21.399483,42.036446 
	C23.179636,41.726063 24.548082,41.284252 25.949947,41.019180 
	C30.430599,40.171947 31.109863,37.760639 29.102169,33.820900 
	C31.161510,32.388462 33.019463,31.226999 34.877411,30.065538 
z"/>
<path fill="#F8A1B8" opacity="1.000000" stroke="none" 
	d="
M7.246218,25.149338 
	C7.160225,28.130468 6.657204,31.172148 7.079333,34.079502 
	C7.842258,39.334038 5.849365,43.012680 1.337997,45.921692 
	C1.000000,31.979105 1.000000,17.958210 1.292580,3.620855 
	C3.434965,4.902175 5.284771,6.499955 7.089857,8.548408 
	C7.043048,12.656246 7.040959,16.313412 7.010512,20.400227 
	C7.070176,22.269695 7.158196,23.709517 7.246218,25.149338 
z"/>
<path fill="#FBC5D4" opacity="1.000000" stroke="none" 
	d="
M7.134577,8.097734 
	C5.284771,6.499955 3.434965,4.902175 1.292580,3.152198 
	C1.000000,3.000000 1.000000,2.500000 1.000000,2.250000 
	C9.486518,2.156036 17.973036,2.312071 26.740257,3.154675 
	C26.262199,5.009488 25.503439,6.177733 24.307758,7.247330 
	C18.292086,7.465032 12.713331,7.781384 7.134577,8.097734 
z"/>
<path fill="#FFFCFD" opacity="1.000000" stroke="none" 
	d="
M229.531342,1.000000 
	C230.000885,1.441629 230.001770,1.883257 229.588806,2.613392 
	C224.736984,2.913608 220.298996,2.925316 215.528290,2.986081 
	C213.445084,4.746769 211.685837,6.449542 209.946304,8.172229 
	C207.671265,10.425253 205.411789,12.694007 203.081680,14.502707 
	C202.689270,10.103795 202.360809,6.158168 202.031464,1.909214 
	C202.020401,1.403924 202.010208,1.201962 202.000000,1.000000 
	C211.020889,1.000000 220.041794,1.000000 229.531342,1.000000 
z"/>
<path fill="#FACFDB" opacity="1.000000" stroke="none" 
	d="
M142.898300,9.028802 
	C143.348190,7.781708 143.432129,6.010536 144.319946,5.390595 
	C146.547943,3.834826 149.139572,2.799803 151.792694,1.277972 
	C153.388885,1.000000 154.777786,1.000000 156.582275,1.385996 
	C156.663086,3.505345 156.328293,5.238697 155.663116,7.123703 
	C153.934692,7.676710 152.536667,8.078062 150.710388,8.337612 
	C147.820847,8.473475 145.359573,8.751139 142.898300,9.028802 
z"/>
<path fill="#FACCD9" opacity="1.000000" stroke="none" 
	d="
M201.543152,1.000000 
	C202.010208,1.201962 202.020401,1.403924 201.901855,2.197766 
	C200.148483,4.508911 198.523865,6.228175 196.610474,7.808535 
	C194.533707,6.093450 192.745682,4.517269 190.957672,2.941088 
	C190.965256,2.509711 190.972839,2.078334 190.990204,1.323478 
	C194.362106,1.000000 197.724197,1.000000 201.543152,1.000000 
z"/>
<path fill="#FBC5D4" opacity="1.000000" stroke="none" 
	d="
M155.993500,6.972048 
	C156.328293,5.238697 156.663086,3.505345 156.998932,1.385996 
	C159.041672,1.000000 161.083328,1.000000 163.562500,1.000000 
	C164.000000,1.000000 164.010071,1.480275 163.647003,1.812005 
	C162.834015,3.908031 162.384109,5.672327 161.512329,7.383722 
	C159.391464,7.211230 157.692474,7.091639 155.993500,6.972048 
z"/>
<path fill="#BA5168" opacity="1.000000" stroke="none" 
	d="
M252.015427,46.830723 
	C248.584381,46.808762 245.153320,46.786804 241.745941,46.283127 
	C246.313034,42.670521 247.727707,38.351284 247.104416,32.966671 
	C246.713470,29.589331 247.458801,26.537420 252.481323,26.991035 
	C255.617249,27.038973 258.309204,27.030823 261.388489,27.060181 
	C265.955750,27.084303 268.428253,24.619694 270.485931,20.941296 
	C271.069244,18.772137 271.404541,16.865108 272.112732,14.840412 
	C274.021698,14.465458 275.557709,14.208173 277.093750,13.950888 
	C279.307983,23.257046 272.464966,32.295666 262.589325,33.012981 
	C260.272034,33.181297 257.908295,32.870724 255.618179,33.174503 
	C254.682541,33.298615 253.885788,34.469742 252.593384,35.665321 
	C250.650436,38.323132 249.702469,40.412033 252.867828,42.002743 
	C252.913544,43.075188 252.959274,44.147633 252.752960,45.708832 
	C252.276230,46.360420 252.114395,46.571468 252.015427,46.830723 
z"/>
<path fill="#B84E66" opacity="1.000000" stroke="none" 
	d="
M181.316406,22.099363 
	C182.804901,31.332275 179.473648,38.824169 172.399155,44.464035 
	C165.217499,50.189354 157.067337,51.008553 148.276581,46.860153 
	C148.346573,44.800800 148.678940,43.369049 149.382401,41.959827 
	C150.496368,42.004112 151.239227,42.025871 152.267319,42.288414 
	C154.050964,42.622231 155.549393,42.715260 157.459564,42.863281 
	C164.519043,43.079666 169.589142,40.684250 172.438522,34.003357 
	C173.291153,30.579962 173.804199,27.292635 174.560913,23.804012 
	C174.948013,22.766491 175.091446,21.930269 175.585663,21.069061 
	C177.729752,21.395840 179.523071,21.747602 181.316406,22.099363 
z"/>
<path fill="#BD586F" opacity="1.000000" stroke="none" 
	d="
M348.901215,3.188919 
	C348.901215,17.609640 348.901215,32.030357 348.901215,46.754993 
	C344.894501,46.754993 341.297638,46.754993 337.723816,46.258549 
	C339.488159,43.647198 342.455383,41.679989 342.731445,39.388573 
	C343.444916,33.466038 342.970581,27.400406 342.970581,20.855782 
	C340.777191,21.394249 339.402710,21.731686 338.046265,21.729088 
	C338.701294,19.978693 339.338257,18.568333 340.367950,17.047787 
	C341.070648,14.531289 341.380646,12.124981 341.753204,9.494687 
	C341.815765,9.270702 341.931885,8.820324 342.237488,8.713472 
	C344.662445,6.800721 346.781830,4.994819 348.901215,3.188919 
z"/>
<path fill="#FAC0CF" opacity="1.000000" stroke="none" 
	d="
M92.033539,45.101357 
	C94.225685,37.999573 96.321083,30.865971 98.642616,23.806740 
	C100.302711,18.758768 102.161095,13.768948 104.118660,8.827520 
	C107.058685,1.406094 107.128571,1.433778 115.640823,3.027218 
	C114.470421,6.363552 113.111496,9.080613 111.411423,11.849323 
	C109.557915,13.951705 107.533455,15.801145 106.632835,18.092342 
	C104.287102,24.059958 102.228195,30.161953 100.452942,36.325008 
	C99.140060,40.882862 96.369019,43.642639 92.033539,45.101357 
z"/>
<path fill="#F89FB7" opacity="1.000000" stroke="none" 
	d="
M309.167358,43.937771 
	C309.148315,30.961042 309.129272,17.984312 309.468781,4.564631 
	C311.617310,5.464479 313.407349,6.807281 315.170227,8.607628 
	C315.271912,15.588981 315.400787,22.112785 315.541870,29.253601 
	C318.079407,28.399820 319.316620,27.983551 320.671448,28.024445 
	C320.877258,30.061647 320.965424,31.641687 320.911865,33.524117 
	C317.368652,37.242683 313.967102,40.658867 310.215210,44.049110 
	C309.632324,43.994705 309.399841,43.966240 309.167358,43.937771 
z"/>
<path fill="#F9A2B9" opacity="1.000000" stroke="none" 
	d="
M190.930634,3.415115 
	C192.745682,4.517269 194.533707,6.093450 196.630630,8.270700 
	C196.939545,12.687338 196.939545,16.502905 196.939545,20.318474 
	C197.448410,20.396967 197.957275,20.475460 198.466141,20.553953 
	C199.943161,19.333378 201.420197,18.112803 202.934158,17.336678 
	C203.000381,20.137392 203.029678,22.493660 202.674896,24.921982 
	C201.512161,25.058165 200.733536,25.122293 199.714859,25.202282 
	C199.187866,25.397501 198.997482,25.649782 198.607971,26.177900 
	C197.923828,28.253016 197.535370,30.125216 197.089340,32.437748 
	C198.026505,38.624313 195.823761,42.922333 191.060974,46.060841 
	C191.008514,32.003609 190.956055,17.946375 190.930634,3.415115 
z"/>
<path fill="#B95067" opacity="1.000000" stroke="none" 
	d="
M310.565582,44.075054 
	C313.967102,40.658867 317.368652,37.242683 321.234772,33.395920 
	C324.536682,29.572378 327.299316,26.113037 330.236328,22.808710 
	C332.357819,20.421898 334.711090,18.241114 337.280396,16.036425 
	C338.391602,16.455599 339.183441,16.806789 339.975220,17.157976 
	C339.338257,18.568333 338.701294,19.978693 337.928864,21.973534 
	C337.521942,23.019823 337.250458,23.481630 336.978943,23.943449 
	C332.995209,29.742449 328.600464,35.310131 325.163239,41.416759 
	C322.610901,45.951271 319.498779,47.763451 314.529327,47.005352 
	C312.914978,46.759079 311.248077,46.857204 309.642242,46.295982 
	C309.974701,45.221127 310.270142,44.648090 310.565582,44.075054 
z"/>
<path fill="#F8A1B8" opacity="1.000000" stroke="none" 
	d="
M49.031273,46.953709 
	C48.693943,45.611610 48.069836,44.270802 48.063805,42.927216 
	C48.005669,29.978458 48.051563,17.029236 48.391624,3.742801 
	C50.545494,4.998524 52.375446,6.591593 54.174416,8.640437 
	C54.578762,18.945732 52.847897,28.927866 55.325592,39.003582 
	C57.285152,38.056854 58.585953,37.428394 59.925541,37.237858 
	C59.954296,38.842628 59.944260,40.009472 59.522297,41.189209 
	C53.818657,39.733650 51.475693,43.432575 49.031273,46.953709 
z"/>
<path fill="#D16B84" opacity="1.000000" stroke="none" 
	d="
M111.752563,11.797675 
	C113.111496,9.080613 114.470421,6.363552 115.924118,3.310079 
	C116.737701,3.752562 117.784584,4.409589 118.125999,5.328674 
	C123.068443,18.633986 127.921310,31.972622 132.762787,45.315197 
	C132.910736,45.722942 132.704330,46.259274 132.174805,46.522560 
	C129.409836,44.804619 127.133194,43.299778 124.836693,41.432800 
	C122.582291,34.342430 120.506798,27.553961 117.998238,20.929493 
	C117.392288,19.329315 115.354416,18.271378 114.120224,16.643269 
	C115.805679,13.493625 114.269539,12.373297 111.752563,11.797675 
z"/>
<path fill="#F9A2B9" opacity="1.000000" stroke="none" 
	d="
M252.037354,26.934944 
	C247.458801,26.537420 246.713470,29.589331 247.104416,32.966671 
	C247.727707,38.351284 246.313034,42.670521 241.483612,45.982208 
	C241.141312,32.120514 241.085007,18.078022 241.354553,3.701774 
	C243.480759,5.332253 245.281128,7.296490 247.106339,9.697441 
	C247.201080,13.741980 247.270981,17.349802 247.285019,21.289593 
	C247.657089,22.863056 248.085022,24.104553 248.582886,25.548891 
	C250.285660,24.130293 251.613495,23.024071 252.974335,22.288288 
	C252.684021,24.084135 252.360687,25.509541 252.037354,26.934944 
z"/>
<path fill="#FAA4BB" opacity="1.000000" stroke="none" 
	d="
M361.240936,46.161530 
	C361.176605,32.120182 361.112274,18.078836 361.372772,3.705232 
	C363.534760,4.963750 365.371857,6.554526 367.173767,8.586928 
	C367.408722,12.394593 367.678864,15.760631 367.956604,19.560890 
	C367.996063,22.356228 368.027924,24.717342 367.986664,27.482941 
	C367.643524,29.662357 366.958954,31.490667 367.179382,33.202442 
	C367.906616,38.850063 366.001617,43.115677 361.240936,46.161530 
z"/>
<path fill="#BB536A" opacity="1.000000" stroke="none" 
	d="
M111.411423,11.849323 
	C114.269539,12.373297 115.805679,13.493625 113.857468,16.823084 
	C112.667770,18.561125 111.886009,19.798534 111.104240,21.035942 
	C108.984253,28.018406 106.667419,34.949299 104.819351,42.003006 
	C103.740417,46.121075 101.591484,47.861851 97.452591,47.057220 
	C95.519203,46.681355 93.611336,46.174217 91.862717,45.413963 
	C96.369019,43.642639 99.140060,40.882862 100.452942,36.325008 
	C102.228195,30.161953 104.287102,24.059958 106.632835,18.092342 
	C107.533455,15.801145 109.557915,13.951705 111.411423,11.849323 
z"/>
<path fill="#FAA4BB" opacity="1.000000" stroke="none" 
	d="
M286.220734,46.158852 
	C286.144348,32.423065 286.067932,18.687279 286.346649,4.511927 
	C288.502716,5.402793 290.303650,6.733226 292.090515,8.528054 
	C292.067352,17.156084 291.651825,25.346544 292.188324,33.474171 
	C292.562561,39.144260 290.668243,43.085392 286.220734,46.158852 
z"/>
<path fill="#FACCD9" opacity="1.000000" stroke="none" 
	d="
M336.960999,15.968435 
	C334.711090,18.241114 332.357819,20.421898 330.236328,22.808710 
	C327.299316,26.113037 324.536682,29.572378 321.376465,33.093536 
	C320.965424,31.641687 320.877258,30.061647 320.800049,27.677019 
	C321.026367,25.897722 321.241699,24.923012 321.457031,23.948307 
	C323.514435,21.509241 325.729065,19.183264 327.586609,16.600489 
	C329.595856,13.806884 331.512512,10.892897 333.037262,7.817123 
	C335.396362,3.058454 338.902252,0.992369 344.521118,2.390034 
	C343.903717,4.779701 342.917816,6.800018 341.931885,8.820330 
	C341.931885,8.820324 341.815765,9.270702 341.458496,9.629412 
	C339.721130,11.981559 338.341064,13.974995 336.960999,15.968435 
z"/>
<path fill="#B95067" opacity="1.000000" stroke="none" 
	d="
M197.146912,31.997414 
	C197.535370,30.125216 197.923828,28.253016 198.825912,26.108330 
	C199.620483,25.691168 199.825592,25.474693 199.954895,25.186420 
	C200.733536,25.122293 201.512161,25.058165 203.019012,24.938681 
	C208.547638,19.006557 213.348038,13.129790 218.500198,7.160645 
	C221.881363,6.047700 224.910751,5.027133 227.940140,4.006567 
	C223.931015,8.963441 219.917542,13.916812 215.915543,18.879431 
	C214.782272,20.284733 213.682465,21.717028 212.116486,23.522144 
	C209.100449,24.678740 206.563812,25.476244 206.715210,29.123745 
	C205.231979,30.159508 204.044708,31.072182 202.447601,31.989655 
	C200.407486,31.995440 198.777191,31.996426 197.146912,31.997414 
z"/>
<path fill="#BA5168" opacity="1.000000" stroke="none" 
	d="
M286.482178,46.454292 
	C290.668243,43.085392 292.562561,39.144260 292.188324,33.474171 
	C291.651825,25.346544 292.067352,17.156084 292.343994,8.364031 
	C293.391266,7.096942 294.170959,6.458272 295.110626,6.218405 
	C295.513733,8.385201 295.949707,10.151326 295.966827,11.921507 
	C296.043243,19.819273 295.903748,27.720419 296.086029,35.614716 
	C296.120117,37.090191 297.270569,38.539886 297.905823,40.001476 
	C297.955414,41.722126 298.005005,43.442776 297.789337,45.676178 
	C297.290436,46.350266 297.121246,46.562893 297.016479,46.826813 
	C293.592194,46.801117 290.167877,46.775425 286.482178,46.454292 
z"/>
<path fill="#C05870" opacity="1.000000" stroke="none" 
	d="
M59.886749,36.799934 
	C58.585953,37.428394 57.285152,38.056854 55.325592,39.003582 
	C52.847897,28.927866 54.578762,18.945732 54.430641,8.443788 
	C56.146423,6.169242 57.574989,4.547122 59.003555,2.925002 
	C59.417904,4.557714 60.167763,6.185693 60.190868,7.823924 
	C60.318344,16.861427 60.268459,25.901434 60.172424,35.615421 
	C60.005886,36.460152 59.946316,36.630043 59.886749,36.799934 
z"/>
<path fill="#B84D64" opacity="1.000000" stroke="none" 
	d="
M49.497040,46.990334 
	C51.475693,43.432575 53.818657,39.733650 59.914371,41.326691 
	C68.478493,41.425610 76.865959,44.404045 83.041321,36.789604 
	C83.041321,39.931820 83.041321,43.074039 83.041321,47.026955 
	C72.073814,47.026955 61.018311,47.026955 49.497040,46.990334 
z"/>
<path fill="#BC536B" opacity="1.000000" stroke="none" 
	d="
M361.501221,46.463737 
	C366.001617,43.115677 367.906616,38.850063 367.179382,33.202442 
	C366.958954,31.490667 367.643524,29.662357 368.282898,27.316603 
	C369.829742,26.059046 371.007233,25.372314 372.476074,24.730448 
	C373.161346,24.783543 373.555298,24.791773 374.083252,25.094730 
	C374.813751,25.571108 375.410187,25.752758 376.150055,26.197769 
	C376.836029,26.680845 377.378571,26.900560 377.921631,27.431589 
	C377.936218,28.157728 377.950317,28.572556 377.620941,29.031225 
	C375.917419,30.804451 374.557434,32.533833 373.197418,34.263214 
	C373.197418,38.316719 373.197418,42.370224 373.197418,46.765949 
	C369.165863,46.765949 365.463684,46.765949 361.501221,46.463737 
z"/>
<path fill="#F489A5" opacity="1.000000" stroke="none" 
	d="
M111.463394,21.083519 
	C111.886009,19.798534 112.667770,18.561125 113.712280,17.143902 
	C115.354416,18.271378 117.392288,19.329315 117.998238,20.929493 
	C120.506798,27.553961 122.582291,34.342430 124.570824,41.629204 
	C123.162056,43.476616 121.999290,44.765495 120.836533,46.054375 
	C118.265305,38.575073 115.707138,31.091219 113.105324,23.622568 
	C112.801041,22.749119 112.255981,21.959549 111.463394,21.083519 
z"/>
<path fill="#E67C98" opacity="1.000000" stroke="none" 
	d="
M377.964447,28.987385 
	C377.950317,28.572556 377.936218,28.157728 377.950378,27.089439 
	C377.990814,25.982161 378.002930,25.528343 378.303955,24.934124 
	C380.099579,24.142563 381.606262,23.491404 383.112946,22.840244 
	C386.977020,28.315889 390.843262,33.789982 394.703766,39.268139 
	C395.834747,40.873005 396.949341,42.489384 397.751801,44.494942 
	C394.290344,43.605183 391.148529,42.320961 387.863953,40.731728 
	C384.468903,36.613609 381.216675,32.800499 377.964447,28.987385 
z"/>
<path fill="#E67C98" opacity="1.000000" stroke="none" 
	d="
M207.011139,29.000652 
	C206.563812,25.476244 209.100449,24.678740 211.984711,23.857609 
	C217.547424,30.613081 222.791107,37.418285 227.745743,44.562279 
	C223.971085,43.597397 220.485458,42.293716 216.865433,40.678112 
	C213.491058,36.577675 210.251099,32.789162 207.011139,29.000652 
z"/>
<path fill="#B95067" opacity="1.000000" stroke="none" 
	d="
M383.371368,22.578899 
	C381.606262,23.491404 380.099579,24.142563 378.043243,24.906393 
	C377.318970,25.015474 377.144348,25.011881 376.842499,24.752150 
	C376.385895,24.313923 376.056549,24.131838 375.883545,23.637829 
	C380.037506,18.242802 384.035095,13.159699 388.360901,7.937812 
	C391.540619,7.043344 393.800873,3.295116 397.353333,6.087193 
	C392.778809,11.497312 388.204315,16.907433 383.371368,22.578899 
z"/>
<path fill="#C05971" opacity="1.000000" stroke="none" 
	d="
M321.395844,23.485954 
	C321.241699,24.923012 321.026367,25.897722 320.682434,27.219856 
	C319.316620,27.983551 318.079407,28.399820 315.541870,29.253601 
	C315.400787,22.112785 315.271912,15.588981 315.430695,8.416913 
	C317.491974,6.137203 319.265594,4.505755 321.039215,2.874308 
	C321.137695,9.590741 321.236206,16.307173 321.395844,23.485954 
z"/>
<path fill="#F8A1B8" opacity="1.000000" stroke="none" 
	d="
M336.971619,24.416389 
	C337.250458,23.481630 337.521942,23.019823 337.910828,22.313568 
	C339.402710,21.731686 340.777191,21.394249 342.970581,20.855782 
	C342.970581,27.400406 343.444916,33.466038 342.731445,39.388573 
	C342.455383,41.679989 339.488159,43.647198 337.465576,45.946247 
	C337.110962,39.050037 337.037628,31.969688 336.971619,24.416389 
z"/>
<path fill="#FACFDB" opacity="1.000000" stroke="none" 
	d="
M388.032715,8.076595 
	C384.035095,13.159699 380.037506,18.242802 375.594330,23.615475 
	C374.760651,23.883289 374.372559,23.861540 373.989258,23.439301 
	C373.522125,21.606619 373.050140,20.174425 372.664856,18.385288 
	C372.998138,17.338005 373.244751,16.647665 373.491394,15.957329 
	C377.026703,11.926745 380.543427,7.879536 384.115021,3.881365 
	C384.736694,3.185484 385.589996,2.696562 386.681824,2.478194 
	C387.362427,4.588417 387.697571,6.332506 388.032715,8.076595 
z"/>
<path fill="#F5C2CF" opacity="1.000000" stroke="none" 
	d="
M82.726212,36.520145 
	C76.865959,44.404045 68.478493,41.425610 60.326298,41.313801 
	C59.944260,40.009472 59.954296,38.842628 59.925541,37.237858 
	C59.946316,36.630043 60.005886,36.460152 60.223854,36.070984 
	C67.725197,35.984699 75.068153,36.117695 82.726212,36.520145 
z"/>
<path fill="#FBC5D4" opacity="1.000000" stroke="none" 
	d="
M247.081497,9.260729 
	C245.281128,7.296490 243.480759,5.332253 241.388336,3.241452 
	C243.762314,2.742374 246.424377,2.094876 249.095245,2.056260 
	C254.197433,1.982491 259.304626,2.255528 264.711273,3.084608 
	C264.577301,4.976494 264.141785,6.168391 263.269897,7.297308 
	C257.582886,7.909795 252.332184,8.585262 247.081497,9.260729 
z"/>
<path fill="#BA5168" opacity="1.000000" stroke="none" 
	d="
M197.089340,32.437748 
	C198.777191,31.996426 200.407486,31.995440 202.472214,32.245163 
	C202.939972,32.663559 202.973267,32.831245 203.006577,32.998928 
	C203.006577,37.451466 203.006577,41.904003 203.006577,46.657143 
	C198.849228,46.657143 195.233841,46.657143 191.339722,46.358994 
	C195.823761,42.922333 198.026505,38.624313 197.089340,32.437748 
z"/>
<path fill="#DA7890" opacity="1.000000" stroke="none" 
	d="
M377.620941,29.031227 
	C381.216675,32.800499 384.468903,36.613609 387.820129,41.070503 
	C387.301453,43.404663 386.683807,45.095036 386.066132,46.785408 
	C383.288422,43.650795 380.557068,40.473217 377.710419,37.402489 
	C376.554626,36.155720 375.147980,35.141460 373.526459,34.142307 
	C374.557434,32.533833 375.917419,30.804451 377.620941,29.031227 
z"/>
<path fill="#FACFDB" opacity="1.000000" stroke="none" 
	d="
M172.098938,34.139420 
	C169.589142,40.684250 164.519043,43.079666 157.446045,42.455971 
	C156.994675,40.363430 156.968597,38.733196 156.942505,37.102959 
	C160.757889,35.108551 164.573273,33.114143 169.012360,31.204100 
	C170.457016,32.238781 171.277969,33.189098 172.098938,34.139420 
z"/>
<path fill="#D8718A" opacity="1.000000" stroke="none" 
	d="
M203.337677,33.077316 
	C202.973267,32.831245 202.939972,32.663559 202.882050,32.240364 
	C204.044708,31.072182 205.231979,30.159508 206.715210,29.123741 
	C210.251099,32.789162 213.491058,36.577675 216.834991,41.015991 
	C216.299789,43.096649 215.660614,44.527508 215.021423,45.958366 
	C211.237213,41.690819 207.453003,37.423264 203.337677,33.077316 
z"/>
<path fill="#EF88A3" opacity="1.000000" stroke="none" 
	d="
M24.744678,7.345979 
	C25.503439,6.177733 26.262199,5.009488 27.013737,3.474751 
	C31.544863,3.585088 34.102264,6.446646 35.395477,10.706294 
	C32.373070,10.763963 31.028687,11.827127 30.873413,14.624118 
	C30.825457,15.487964 29.788265,16.296892 28.958549,16.845848 
	C27.498404,16.352959 26.283724,16.145184 25.004265,15.595778 
	C24.626907,14.145675 24.314325,13.037204 24.155266,11.656228 
	C24.454084,10.037807 24.599382,8.691894 24.744678,7.345979 
z"/>
<path fill="#B95067" opacity="1.000000" stroke="none" 
	d="
M155.663101,7.123702 
	C157.692474,7.091639 159.391464,7.211230 161.707458,7.581928 
	C163.197891,8.122385 164.071335,8.411736 165.153412,8.889839 
	C165.581573,9.376515 165.801117,9.674437 165.880554,10.287446 
	C164.708572,11.803651 163.676697,13.004768 162.644806,14.205885 
	C158.992355,14.531667 155.339905,14.857451 151.313492,14.766034 
	C151.005905,12.392360 151.072266,10.435887 151.138641,8.479415 
	C152.536667,8.078062 153.934692,7.676710 155.663101,7.123702 
z"/>
<path fill="#BC566E" opacity="1.000000" stroke="none" 
	d="
M29.204010,17.130964 
	C29.788265,16.296892 30.825457,15.487964 30.873413,14.624118 
	C31.028687,11.827127 32.373070,10.763963 35.411606,11.054242 
	C37.829109,16.094849 35.756973,20.239563 32.579182,24.572876 
	C31.443134,24.955482 30.735909,25.006004 29.711126,25.014977 
	C28.612534,24.652529 27.831497,24.331633 27.177296,23.673279 
	C27.937424,21.267532 28.570717,19.199249 29.204010,17.130964 
z"/>
<path fill="#C05971" opacity="1.000000" stroke="none" 
	d="
M373.428040,15.498844 
	C373.244751,16.647665 372.998138,17.338005 372.492065,18.398304 
	C372.232574,18.768265 371.892792,18.855759 371.498535,18.874008 
	C370.052551,18.970394 369.000763,19.048532 367.949005,19.126669 
	C367.678864,15.760631 367.408722,12.394593 367.436401,8.401408 
	C369.500702,6.142094 371.267151,4.509929 373.033630,2.877763 
	C373.143982,6.931962 373.254333,10.986163 373.428040,15.498844 
z"/>
<path fill="#BC566E" opacity="1.000000" stroke="none" 
	d="
M297.991272,39.539322 
	C297.270569,38.539886 296.120117,37.090191 296.086029,35.614716 
	C295.903748,27.720419 296.043243,19.819273 295.966827,11.921507 
	C295.949707,10.151326 295.513733,8.385201 295.236420,5.945764 
	C296.131805,4.527666 297.061340,3.781012 297.990906,3.034358 
	C298.019501,15.048627 298.048096,27.062895 297.991272,39.539322 
z"/>
<path fill="#E17993" opacity="1.000000" stroke="none" 
	d="
M176.106384,9.941792 
	C176.881927,11.715264 177.657471,13.488738 178.002731,15.619644 
	C176.734833,16.317169 175.897217,16.657263 174.710693,17.027933 
	C172.549805,18.420746 170.737823,19.782980 168.925842,21.145214 
	C167.733444,19.615318 166.541061,18.085417 165.507294,16.232216 
	C166.765930,14.614390 167.865967,13.319866 169.278473,12.131987 
	C171.762772,11.473019 173.934570,10.707405 176.106384,9.941792 
z"/>
<path fill="#EA7E9A" opacity="1.000000" stroke="none" 
	d="
M30.028683,25.056528 
	C30.735909,25.006004 31.443134,24.955482 32.502525,24.925476 
	C33.627033,26.449686 34.399380,27.953379 35.024567,29.761303 
	C33.019463,31.226999 31.161510,32.388462 28.797823,33.771164 
	C27.555723,33.639168 26.819365,33.285927 25.975201,32.686813 
	C25.555920,32.010380 25.244438,31.579821 25.119555,30.858540 
	C26.880327,28.730719 28.454504,26.893623 30.028683,25.056528 
z"/>
<path fill="#DC758F" opacity="1.000000" stroke="none" 
	d="
M277.115967,13.594528 
	C275.557709,14.208173 274.021698,14.465458 271.881592,14.648911 
	C269.199005,14.705845 267.120514,14.836613 264.891205,14.736736 
	C264.422150,14.061055 264.103882,13.616019 264.081055,13.010783 
	C265.296173,11.874028 266.215790,10.897472 267.512451,9.940981 
	C269.959442,9.283324 272.029358,8.605603 274.099274,7.927880 
	C275.112244,9.697975 276.125244,11.468073 277.115967,13.594528 
z"/>
<path fill="#C25D75" opacity="1.000000" stroke="none" 
	d="
M215.274597,46.294434 
	C215.660614,44.527508 216.299789,43.096649 216.969421,41.327919 
	C220.485458,42.293716 223.971085,43.597397 227.836151,44.897099 
	C227.713593,45.565937 227.223343,46.809547 226.707672,46.820179 
	C222.983917,46.896927 219.255020,46.724190 215.274597,46.294434 
z"/>
<path fill="#F9B3C5" opacity="1.000000" stroke="none" 
	d="
M172.438538,34.003349 
	C171.277969,33.189098 170.457016,32.238781 169.355896,31.152771 
	C169.064362,28.910217 169.053009,26.803358 169.505310,24.338795 
	C171.418381,23.989162 172.867813,23.997236 174.317230,24.005310 
	C173.804199,27.292635 173.291153,30.579962 172.438538,34.003349 
z"/>
<path fill="#BA5168" opacity="1.000000" stroke="none" 
	d="
M386.517883,46.869705 
	C386.683807,45.095036 387.301453,43.404663 387.962952,41.375511 
	C391.148529,42.320961 394.290344,43.605183 397.802521,44.836647 
	C398.172913,44.783890 398.141296,44.805004 398.190369,45.085117 
	C398.542755,45.531010 398.846100,45.696785 399.149445,45.862564 
	C399.149445,45.862568 399.007324,45.992554 399.017914,46.175232 
	C399.028503,46.357914 398.956207,46.851826 398.956207,46.851826 
	C394.960693,46.885883 390.965179,46.919941 386.517883,46.869705 
z"/>
<path fill="#FAC0CF" opacity="1.000000" stroke="none" 
	d="
M388.360901,7.937811 
	C387.697571,6.332506 387.362427,4.588417 387.028564,2.465850 
	C390.150543,2.066907 393.273315,1.968247 396.391449,2.048086 
	C399.477234,2.127095 399.572357,3.670353 397.692535,5.963051 
	C393.800873,3.295116 391.540619,7.043344 388.360901,7.937811 
z"/>
<path fill="#FAC0CF" opacity="1.000000" stroke="none" 
	d="
M297.747742,2.694407 
	C297.061340,3.781012 296.131805,4.527666 295.076447,5.546961 
	C294.170959,6.458272 293.391266,7.096942 292.358093,7.899636 
	C290.303650,6.733226 288.502716,5.402793 286.365723,4.044660 
	C287.750641,3.347775 289.426117,2.335459 291.204620,2.099468 
	C293.257172,1.827111 295.400574,2.239438 297.747742,2.694407 
z"/>
<path fill="#F6BDCC" opacity="1.000000" stroke="none" 
	d="
M320.747620,2.583110 
	C319.265594,4.505755 317.491974,6.137203 315.457886,7.959366 
	C313.407349,6.807281 311.617310,5.464479 309.505127,4.102863 
	C310.196991,3.397590 311.172424,2.204467 312.232605,2.123682 
	C314.953674,1.916341 317.712341,2.202832 320.747620,2.583110 
z"/>
<path fill="#F5C2CF" opacity="1.000000" stroke="none" 
	d="
M372.743530,2.587574 
	C371.267151,4.509929 369.500702,6.142094 367.471619,7.959781 
	C365.371857,6.554526 363.534760,4.963750 361.411926,3.245573 
	C364.901947,2.844576 368.677673,2.570981 372.743530,2.587574 
z"/>
<path fill="#F79AB3" opacity="1.000000" stroke="none" 
	d="
M273.946838,7.616432 
	C272.029358,8.605603 269.959442,9.283324 267.332611,9.686502 
	C265.752563,8.728070 264.729401,8.044181 263.706268,7.360290 
	C264.141785,6.168391 264.577301,4.976494 265.007080,3.379353 
	C267.932343,4.417733 270.863342,5.861357 273.946838,7.616432 
z"/>
<path fill="#FBC5D4" opacity="1.000000" stroke="none" 
	d="
M58.709526,2.647827 
	C57.574989,4.547122 56.146423,6.169242 54.461632,7.988011 
	C52.375446,6.591593 50.545494,4.998524 48.430473,3.286277 
	C51.568771,2.901617 54.992134,2.636134 58.709526,2.647827 
z"/>
<path fill="#FAC0CF" opacity="1.000000" stroke="none" 
	d="
M228.245392,3.977138 
	C224.910751,5.027133 221.881363,6.047700 218.353134,6.829003 
	C217.189865,5.372169 216.525436,4.154598 215.861008,2.937026 
	C220.298996,2.925316 224.736984,2.913608 229.589005,2.944614 
	C229.518906,3.307456 229.034775,3.627582 228.245392,3.977138 
z"/>
<path fill="#D16B84" opacity="1.000000" stroke="none" 
	d="
M150.710373,8.337612 
	C151.072266,10.435887 151.005905,12.392360 150.924561,14.783916 
	C148.417923,13.291461 145.926254,11.363921 143.166443,9.232592 
	C145.359573,8.751139 147.820847,8.473475 150.710373,8.337612 
z"/>
<path fill="#B84E66" opacity="1.000000" stroke="none" 
	d="
M121.092934,46.400349 
	C121.999290,44.765495 123.162056,43.476616 124.590683,41.991341 
	C127.133194,43.299778 129.409836,44.804619 131.825867,46.610771 
	C128.426605,46.856823 124.887970,46.801575 121.092934,46.400349 
z"/>
<path fill="#F79AB3" opacity="1.000000" stroke="none" 
	d="
M151.982101,42.047630 
	C151.239227,42.025871 150.496368,42.004112 149.252380,41.688217 
	C148.467773,41.107491 148.184296,40.820896 147.937286,40.125996 
	C147.926865,37.782883 147.879959,35.848076 147.833038,33.913269 
	C149.367111,34.506050 150.901184,35.098831 152.707031,36.253555 
	C152.646591,38.559547 152.314346,40.303589 151.982101,42.047630 
z"/>
<path fill="#FBD8E2" opacity="1.000000" stroke="none" 
	d="
M147.499603,33.970493 
	C147.879959,35.848076 147.926865,37.782883 147.568039,40.189407 
	C146.417496,40.650703 145.672684,40.640285 144.657074,40.419121 
	C143.221786,40.040955 142.057297,39.873535 140.892807,39.706116 
	C142.983932,37.813316 145.075043,35.920517 147.499603,33.970493 
z"/>
<path fill="#F489A5" opacity="1.000000" stroke="none" 
	d="
M174.560913,23.804012 
	C172.867813,23.997236 171.418381,23.989162 169.542877,23.958853 
	C169.048981,23.239178 168.981155,22.541739 168.919586,21.494757 
	C170.737823,19.782980 172.549805,18.420746 174.691757,17.437672 
	C175.092773,18.909235 175.163834,20.001640 175.234894,21.094048 
	C175.091446,21.930269 174.948013,22.766491 174.560913,23.804012 
z"/>
<path fill="#F489A5" opacity="1.000000" stroke="none" 
	d="
M175.974243,9.649559 
	C173.934570,10.707405 171.762772,11.473019 169.058105,12.037432 
	C168.252518,11.642229 168.073685,11.383364 168.020355,10.719049 
	C169.387131,8.904536 170.722244,7.430613 172.057373,5.956690 
	C173.318954,7.090236 174.580536,8.223782 175.974243,9.649559 
z"/>
<path fill="#C6647B" opacity="1.000000" stroke="none" 
	d="
M175.585663,21.069061 
	C175.163834,20.001640 175.092773,18.909235 175.040665,17.407093 
	C175.897217,16.657263 176.734833,16.317169 177.911957,15.919130 
	C179.339233,17.717258 180.427002,19.573334 181.415588,21.764385 
	C179.523071,21.747602 177.729752,21.395840 175.585663,21.069061 
z"/>
<path fill="#F9B3C5" opacity="1.000000" stroke="none" 
	d="
M152.267319,42.288414 
	C152.314346,40.303589 152.646591,38.559547 152.978027,36.434113 
	C154.070648,36.379299 155.164062,36.705883 156.599991,37.067711 
	C156.968597,38.733196 156.994675,40.363430 157.034302,42.400978 
	C155.549393,42.715260 154.050964,42.622231 152.267319,42.288414 
z"/>
<path fill="#F9B3C5" opacity="1.000000" stroke="none" 
	d="
M164.944794,8.701089 
	C164.071335,8.411736 163.197891,8.122385 162.129333,7.634829 
	C162.384109,5.672327 162.834015,3.908031 163.672043,2.050885 
	C165.302704,2.386117 166.545242,2.814200 167.686920,3.691636 
	C166.705627,5.661024 165.825211,7.181058 164.944794,8.701089 
z"/>
<path fill="#F79AB3" opacity="1.000000" stroke="none" 
	d="
M165.153412,8.889843 
	C165.825211,7.181058 166.705627,5.661024 167.900955,3.954804 
	C169.378738,4.316995 170.541595,4.865372 171.880920,5.685219 
	C170.722244,7.430613 169.387131,8.904536 167.762756,10.602033 
	C166.989227,10.541190 166.504944,10.256774 166.020645,9.972359 
	C165.801117,9.674437 165.581573,9.376515 165.153412,8.889843 
z"/>
<path fill="#C05971" opacity="1.000000" stroke="none" 
	d="
M144.927872,40.629868 
	C145.672684,40.640285 146.417496,40.650703 147.531555,40.597710 
	C148.184296,40.820896 148.467773,41.107491 148.881287,41.665691 
	C148.678940,43.369049 148.346573,44.800800 148.011932,46.603107 
	C146.325928,45.565655 144.642181,44.157650 143.264740,42.342354 
	C144.023315,41.500000 144.475586,41.064934 144.927872,40.629868 
z"/>
<path fill="#C25D75" opacity="1.000000" stroke="none" 
	d="
M165.880554,10.287446 
	C166.504944,10.256774 166.989227,10.541190 167.731125,10.942621 
	C168.073685,11.383364 168.252518,11.642229 168.745621,11.930788 
	C167.865967,13.319866 166.765930,14.614390 165.324921,15.964084 
	C164.323273,15.578596 163.662613,15.137939 162.823364,14.451584 
	C163.676697,13.004768 164.708572,11.803651 165.880554,10.287446 
z"/>
<path fill="#F6BDCC" opacity="1.000000" stroke="none" 
	d="
M342.237488,8.713478 
	C342.917816,6.800018 343.903717,4.779701 344.957001,2.421832 
	C346.227417,2.223971 347.430420,2.363663 348.767334,2.846136 
	C346.781830,4.994819 344.662445,6.800721 342.237488,8.713478 
z"/>
<path fill="#BC566E" opacity="1.000000" stroke="none" 
	d="
M252.945496,41.578880 
	C249.702469,40.412033 250.650436,38.323132 252.515076,36.081902 
	C252.920547,37.716808 252.971848,39.435917 252.945496,41.578880 
z"/>
<path fill="#F79AB3" opacity="1.000000" stroke="none" 
	d="
M144.657074,40.419121 
	C144.475586,41.064934 144.023315,41.500000 143.227737,41.970329 
	C142.026428,41.301853 141.168427,40.598114 140.601624,39.800243 
	C142.057297,39.873535 143.221786,40.040955 144.657074,40.419121 
z"/>
<path fill="#F6BDCC" opacity="1.000000" stroke="none" 
	d="
M310.215210,44.049118 
	C310.270142,44.648090 309.974701,45.221127 309.400269,45.963623 
	C309.096527,45.643890 309.071777,45.154697 309.107178,44.301636 
	C309.399841,43.966240 309.632324,43.994705 310.215210,44.049118 
z"/>
<path fill="#E67C98" opacity="1.000000" stroke="none" 
	d="
M399.204742,46.861923 
	C398.956207,46.851826 399.028503,46.357914 399.094055,46.116333 
	C399.377716,46.093224 399.595825,46.311695 399.813934,46.530163 
	C399.693726,46.644108 399.573486,46.758064 399.204742,46.861923 
z"/>
<path fill="#BC566E" opacity="1.000000" stroke="none" 
	d="
M297.273621,46.842030 
	C297.121246,46.562893 297.290436,46.350266 297.710114,46.100204 
	C297.774353,46.293400 297.652557,46.575325 297.273621,46.842030 
z"/>
<path fill="#BC566E" opacity="1.000000" stroke="none" 
	d="
M252.268646,46.847267 
	C252.114395,46.571468 252.276230,46.360420 252.680695,46.106163 
	C252.747604,46.297760 252.634750,46.580788 252.268646,46.847267 
z"/>
<path fill="#E67C98" opacity="1.000000" stroke="none" 
	d="
M399.075378,45.613392 
	C398.846100,45.696785 398.542755,45.531010 398.198303,45.096954 
	C398.438568,45.007191 398.719940,45.185707 399.075378,45.613392 
z"/>
<path fill="#FFFEFE" opacity="1.000000" stroke="none" 
	d="
M24.932957,31.149265 
	C25.244438,31.579821 25.555920,32.010380 25.816118,32.991035 
	C24.171717,35.008499 22.578594,36.475864 20.533916,37.944004 
	C17.636200,37.942863 15.190042,37.940945 12.743884,37.939030 
	C12.743884,35.145851 12.743884,32.352673 12.743884,29.195620 
	C16.407572,29.195620 19.685862,29.195620 23.420742,29.604963 
	C24.229206,30.392626 24.581081,30.770945 24.932957,31.149265 
z"/>
<path fill="#F7C4D1" opacity="1.000000" stroke="none" 
	d="
M28.958548,16.845848 
	C28.570717,19.199249 27.937424,21.267532 26.709763,23.716629 
	C21.742493,24.190237 17.369591,24.283033 12.996691,24.375828 
	C12.777556,24.347506 12.558423,24.319185 12.058157,23.856609 
	C11.882296,22.304783 11.987566,21.187212 12.252808,20.009550 
	C12.412779,19.949461 12.754533,19.952665 13.221372,19.987947 
	C15.470760,20.035152 17.257605,19.972742 19.034912,20.075417 
	C22.151089,20.255438 24.494066,19.413414 25.069042,15.937409 
	C26.283724,16.145184 27.498404,16.352959 28.958548,16.845848 
z"/>
<path fill="#FACFDB" opacity="1.000000" stroke="none" 
	d="
M20.985474,37.943230 
	C22.578594,36.475864 24.171717,35.008499 25.923920,33.236916 
	C26.819365,33.285927 27.555723,33.639168 28.596428,34.042141 
	C31.109863,37.760639 30.430599,40.171947 25.949947,41.019180 
	C24.548082,41.284252 23.179636,41.726063 21.398859,41.633179 
	C20.996372,40.100670 20.990923,39.021946 20.985474,37.943230 
z"/>
<path fill="#FBC5D4" opacity="1.000000" stroke="none" 
	d="
M20.533916,37.944000 
	C20.990923,39.021946 20.996372,40.100670 21.002449,41.582653 
	C18.308971,42.016396 15.614869,42.046875 12.468475,41.607052 
	C11.956251,40.330479 11.896319,39.524208 11.836388,38.717941 
	C11.920878,38.432236 12.084353,38.202824 12.535347,37.984367 
	C15.190042,37.940945 17.636200,37.942863 20.533916,37.944000 
z"/>
<path fill="#D8718A" opacity="1.000000" stroke="none" 
	d="
M13.336068,24.588022 
	C17.369591,24.283033 21.742493,24.190237 26.582928,24.054089 
	C27.831497,24.331633 28.612534,24.652529 29.711126,25.014977 
	C28.454504,26.893623 26.880327,28.730719 25.119553,30.858540 
	C24.581081,30.770945 24.229206,30.392626 23.853426,29.746117 
	C24.459902,28.355772 25.090281,27.233616 26.142395,25.360723 
	C21.639618,25.158281 17.657532,24.979248 13.336068,24.588022 
z"/>
<path fill="#D8718A" opacity="1.000000" stroke="none" 
	d="
M12.092837,20.069639 
	C11.987566,21.187212 11.882296,22.304783 11.726835,23.847931 
	C10.416075,24.532042 9.155504,24.790575 7.570576,25.099224 
	C7.158196,23.709517 7.070176,22.269695 7.428980,20.429581 
	C9.281483,20.042736 10.687160,20.056189 12.092837,20.069639 
z"/>
<path fill="#F8A1B8" opacity="1.000000" stroke="none" 
	d="
M11.480213,38.784279 
	C11.896319,39.524208 11.956251,40.330479 12.024604,41.538116 
	C11.096541,41.591728 10.160059,41.243973 9.223576,40.896214 
	C9.857064,40.214348 10.490552,39.532486 11.480213,38.784279 
z"/>
<path fill="#B95067" opacity="1.000000" stroke="none" 
	d="
M12.252808,20.009550 
	C10.687160,20.056189 9.281483,20.042736 7.457337,19.999931 
	C7.040959,16.313412 7.043048,12.656246 7.089857,8.548408 
	C12.713331,7.781384 18.292086,7.465032 24.307760,7.247330 
	C24.599382,8.691894 24.454084,10.037807 23.737968,11.679009 
	C19.808115,11.703483 16.449080,11.432668 12.754533,11.134803 
	C12.754533,14.665383 12.754533,17.309025 12.754533,19.952665 
	C12.754533,19.952665 12.412779,19.949461 12.252808,20.009550 
z"/>
<path fill="#FACFDB" opacity="1.000000" stroke="none" 
	d="
M215.528290,2.986082 
	C216.525436,4.154598 217.189865,5.372169 218.001358,6.921381 
	C213.348038,13.129790 208.547638,19.006557 203.403107,24.866627 
	C203.029678,22.493660 203.000381,20.137392 202.957489,17.012026 
	C203.011124,15.813945 203.078354,15.384964 203.145599,14.955986 
	C205.411789,12.694007 207.671265,10.425253 209.946304,8.172229 
	C211.685837,6.449542 213.445084,4.746769 215.528290,2.986082 
z"/>
<path fill="#C25D75" opacity="1.000000" stroke="none" 
	d="
M203.081665,14.502703 
	C203.078354,15.384964 203.011124,15.813945 202.920547,16.567577 
	C201.420197,18.112803 199.943161,19.333378 198.466141,20.553953 
	C197.957275,20.475460 197.448410,20.396967 196.939545,20.318474 
	C196.939545,16.502905 196.939545,12.687338 196.919388,8.409605 
	C198.523865,6.228175 200.148483,4.508911 201.902710,2.501094 
	C202.360809,6.158168 202.689270,10.103795 203.081665,14.502703 
z"/>
<path fill="#FACFDB" opacity="1.000000" stroke="none" 
	d="
M270.237915,21.203423 
	C268.428253,24.619694 265.955750,27.084303 261.387604,26.642712 
	C260.998383,24.797604 260.997375,23.407471 261.296692,21.882256 
	C262.787903,20.800028 263.978760,19.852882 265.527954,18.929218 
	C267.336823,19.702944 268.787384,20.453184 270.237915,21.203423 
z"/>
<path fill="#FBC5D4" opacity="1.000000" stroke="none" 
	d="
M260.996368,22.017338 
	C260.997375,23.407471 260.998383,24.797604 261.000275,26.605206 
	C258.309204,27.030823 255.617249,27.038973 252.481323,26.991035 
	C252.360687,25.509541 252.684021,24.084135 253.046478,22.272865 
	C253.085617,21.886999 253.173630,22.004610 253.604523,21.988213 
	C256.355743,21.986988 258.676056,22.002163 260.996368,22.017338 
z"/>
<path fill="#FAA4BB" opacity="1.000000" stroke="none" 
	d="
M270.485931,20.941294 
	C268.787384,20.453184 267.336823,19.702944 265.502686,18.537422 
	C265.093414,17.070553 265.067719,16.018967 265.041992,14.967381 
	C267.120514,14.836613 269.199005,14.705845 271.508667,14.766579 
	C271.404541,16.865108 271.069244,18.772137 270.485931,20.941294 
z"/>
<path fill="#EA7E9A" opacity="1.000000" stroke="none" 
	d="
M337.280396,16.036419 
	C338.341064,13.974995 339.721130,11.981559 341.395935,9.853397 
	C341.380646,12.124981 341.070648,14.531289 340.367981,17.047791 
	C339.183441,16.806789 338.391602,16.455599 337.280396,16.036419 
z"/>
<path fill="#BA5168" opacity="1.000000" stroke="none" 
	d="
M199.714859,25.202282 
	C199.825592,25.474693 199.620483,25.691168 199.121613,25.905415 
	C198.997482,25.649782 199.187866,25.397501 199.714859,25.202282 
z"/>
<path fill="#BA5168" opacity="1.000000" stroke="none" 
	d="
M263.269897,7.297310 
	C264.729401,8.044181 265.752563,8.728070 266.955566,9.666438 
	C266.215790,10.897472 265.296173,11.874028 263.698761,12.889622 
	C259.833618,12.562227 256.646271,12.195794 252.823486,11.756311 
	C252.823486,15.423532 252.823486,18.206558 252.426453,20.992027 
	C250.466568,20.982189 248.903732,20.969908 247.340881,20.957626 
	C247.270981,17.349802 247.201080,13.741980 247.106339,9.697443 
	C252.332184,8.585262 257.582886,7.909795 263.269897,7.297310 
z"/>
<path fill="#C05971" opacity="1.000000" stroke="none" 
	d="
M247.285034,21.289593 
	C248.903732,20.969908 250.466568,20.982189 252.519943,21.243732 
	C253.064865,21.663530 253.119247,21.834070 253.173630,22.004610 
	C253.173630,22.004610 253.085617,21.886999 253.013474,21.902424 
	C251.613495,23.024071 250.285660,24.130293 248.582886,25.548891 
	C248.085022,24.104553 247.657089,22.863056 247.285034,21.289593 
z"/>
<path fill="#F489A5" opacity="1.000000" stroke="none" 
	d="
M367.956604,19.560890 
	C369.000763,19.048532 370.052551,18.970394 371.515503,19.228201 
	C372.012695,21.271294 372.098724,22.978441 372.184723,24.685585 
	C371.007233,25.372314 369.829742,26.059046 368.356018,26.912117 
	C368.027924,24.717342 367.996063,22.356228 367.956604,19.560890 
z"/>
<path fill="#F5C2CF" opacity="1.000000" stroke="none" 
	d="
M372.476074,24.730452 
	C372.098724,22.978441 372.012695,21.271294 371.909729,19.209953 
	C371.892792,18.855759 372.232574,18.768265 372.405396,18.755249 
	C373.050140,20.174425 373.522125,21.606619 373.965637,23.679405 
	C373.937195,24.319996 373.949219,24.800001 373.949219,24.800001 
	C373.555298,24.791773 373.161346,24.783543 372.476074,24.730452 
z"/>
<path fill="#F489A5" opacity="1.000000" stroke="none" 
	d="
M374.083252,25.094730 
	C373.949219,24.800001 373.937195,24.319996 373.960815,24.079893 
	C374.372559,23.861540 374.760651,23.883289 375.437988,23.927395 
	C376.056549,24.131838 376.385895,24.313923 376.630157,24.845827 
	C376.279144,25.378897 376.099701,25.625151 376.006653,25.934406 
	C375.410187,25.752758 374.813751,25.571108 374.083252,25.094730 
z"/>
<path fill="#DA7890" opacity="1.000000" stroke="none" 
	d="
M376.150055,26.197769 
	C376.099701,25.625151 376.279144,25.378897 376.757385,25.101967 
	C377.144348,25.011881 377.318970,25.015474 377.754333,25.046795 
	C378.002930,25.528343 377.990814,25.982161 377.949921,26.778126 
	C377.378571,26.900560 376.836029,26.680845 376.150055,26.197769 
z"/>
<path fill="#FDF8F9" opacity="1.000000" stroke="none" 
	d="
M13.221372,19.987947 
	C12.754533,17.309025 12.754533,14.665383 12.754533,11.134803 
	C16.449080,11.432668 19.808115,11.703483 23.584446,11.951515 
	C24.314325,13.037204 24.626907,14.145675 25.004265,15.595778 
	C24.494066,19.413414 22.151089,20.255438 19.034912,20.075417 
	C17.257605,19.972742 15.470760,20.035152 13.221372,19.987947 
z"/>
<path fill="#FEFAFB" opacity="1.000000" stroke="none" 
	d="
M253.604523,21.988213 
	C253.119247,21.834070 253.064865,21.663530 252.916992,21.241287 
	C252.823486,18.206558 252.823486,15.423532 252.823486,11.756311 
	C256.646271,12.195794 259.833618,12.562227 263.403320,13.049822 
	C264.103882,13.616019 264.422150,14.061055 264.891205,14.736736 
	C265.067719,16.018967 265.093414,17.070553 265.144379,18.513939 
	C263.978760,19.852882 262.787903,20.800028 261.296692,21.882256 
	C258.676056,22.002163 256.355743,21.986988 253.604523,21.988213 
z"/>
</svg>